<svg width="1440" height="459" viewBox="0 0 1440 459" fill="none" xmlns="http://www.w3.org/2000/svg">
<mask id="mask0" mask-type="alpha" maskUnits="userSpaceOnUse" x="0" y="0" width="1440" height="459">
<rect width="1440" height="459" rx="13.3571" fill="white"/>
</mask>
<g mask="url(#mask0)">
<path d="M1196.77 19.9801C1196.77 16.4701 1192.66 13.5001 1187.81 13.5001C1182.96 13.5001 1178.86 16.4701 1178.86 19.9801C1178.86 21.3301 1181.1 22.1401 1183.71 22.4101V28.6201H1191.17V22.4101C1194.53 21.8701 1196.77 21.0601 1196.77 19.9801Z" fill="#FFD15C"/>
<path d="M1016.95 73.3717C1020.68 71.2117 1021.43 67.1617 1018.07 64.4617C1015.09 61.7617 1009.49 61.2217 1005.76 63.6517C1004.27 64.4617 1005.02 66.0817 1006.51 67.9717L999.793 71.7517L1004.64 76.0717L1011.36 72.0217C1013.22 73.3717 1015.46 74.1817 1016.95 73.3717Z" fill="#FFD15C"/>
<path fill-rule="evenodd" clip-rule="evenodd" d="M1175.86 65.3398C1175.86 62.0998 1179.59 59.3998 1184.06 59.3998C1188.91 59.3998 1192.64 62.0998 1192.27 65.3398C1192.27 68.5798 1188.54 71.2798 1184.06 71.2798C1179.59 71.2798 1175.86 68.5798 1175.86 65.3398ZM1178.84 65.3401C1178.84 67.5001 1181.08 69.1201 1184.06 69.1201C1187.05 69.1201 1189.29 67.5001 1189.29 65.3401C1189.29 63.1801 1187.05 61.5601 1184.06 61.5601C1181.08 61.5601 1178.84 63.1801 1178.84 65.3401Z" fill="#FF7058"/>
<path fill-rule="evenodd" clip-rule="evenodd" d="M1029.64 14.04C1029.64 10.8 1033.37 8.09998 1037.84 8.09998C1042.69 8.09998 1046.42 10.8 1046.05 14.04C1046.05 17.28 1042.32 19.98 1037.84 19.98C1033.37 19.98 1029.64 17.28 1029.64 14.04ZM1032.62 14.0401C1032.62 16.2001 1034.86 17.8201 1037.84 17.8201C1040.83 17.8201 1043.07 16.2001 1043.07 14.0401C1043.07 11.8801 1040.83 10.2601 1037.84 10.2601C1034.86 10.2601 1032.62 11.8801 1032.62 14.0401Z" fill="#FF7058"/>
<path fill-rule="evenodd" clip-rule="evenodd" d="M1149.02 96.4265C1149.02 93.1865 1152.75 90.4865 1157.22 90.4865C1161.7 90.4865 1165.43 93.1865 1165.43 96.4265C1165.43 99.6665 1161.7 102.366 1157.22 102.366C1152.75 102.366 1149.02 99.6665 1149.02 96.4265ZM1152 96.1565C1152 98.3165 1154.24 99.9365 1157.22 99.9365C1160.21 99.9365 1162.45 98.3165 1162.45 96.1565C1162.45 93.9965 1160.21 92.3765 1157.22 92.3765C1154.24 92.3765 1152 93.9965 1152 96.1565Z" fill="#FF7058"/>
<path d="M401.036 550.8C401.036 550.8 -233.161 477.9 624.87 437.4C1482.9 396.9 1216.17 600.75 1121.04 297C1025.91 -6.7502 1329.95 481.95 1231.09 256.5C1132.23 31.0498 1831.71 191.7 1341.14 21.5998C850.57 -148.5 1221.76 302.4 718.135 166.05C214.508 29.6998 283.523 -216 283.523 -216" stroke="#868686" stroke-width="1.11309" stroke-linecap="round" stroke-dasharray="5.57"/>
<path d="M1010.24 291.547H995.316C993.824 291.547 992.332 290.467 992.332 289.387C992.332 288.307 993.451 287.227 995.316 287.227H1010.24C1011.73 287.227 1013.22 288.307 1013.22 289.387C1012.85 290.737 1011.73 291.547 1010.24 291.547Z" fill="#CD807D"/>
<path d="M1038.96 259.417C1037.84 259.417 1037.1 258.877 1036.35 258.337L1029.64 248.617C1028.89 247.537 1029.64 246.457 1030.76 245.917C1032.25 245.377 1033.74 245.917 1034.49 246.727L1041.2 256.447C1042.32 257.257 1041.95 259.417 1038.96 259.417Z" fill="#CD807D"/>
<path d="M1017.7 329.617L1010.24 320.167C1009.49 319.087 1009.86 318.007 1011.36 317.467C1012.85 316.927 1014.34 317.197 1015.09 318.277L1022.55 327.727C1023.29 328.807 1022.92 329.887 1021.43 330.427C1020.31 330.967 1018.45 330.157 1017.7 329.617Z" fill="#84DBFF"/>
<path d="M997.554 319.087C1000.23 319.087 1002.4 317.516 1002.4 315.577C1002.4 313.639 1000.23 312.067 997.554 312.067C994.876 312.067 992.705 313.639 992.705 315.577C992.705 317.516 994.876 319.087 997.554 319.087Z" fill="#FFD15C"/>
<path d="M1005.02 268.057C1007.69 268.057 1009.87 266.486 1009.87 264.547C1009.87 262.609 1007.69 261.037 1005.02 261.037C1002.34 261.037 1000.17 262.609 1000.17 264.547C1000.17 266.486 1002.34 268.057 1005.02 268.057Z" fill="#84DBFF"/>
<path d="M1104.25 121.5C1106.11 122.85 1122.9 125.55 1135.96 116.1" stroke="black" stroke-width="1.11309" stroke-linecap="round"/>
</g>
</svg>
