<svg width="1024" height="399" viewBox="0 0 1024 399" fill="none" xmlns="http://www.w3.org/2000/svg">
<mask id="mask0" mask-type="alpha" maskUnits="userSpaceOnUse" x="0" y="0" width="1030" height="399">
<rect width="1030" height="399" rx="10.1074" fill="white"/>
</mask>
<g mask="url(#mask0)">
<path d="M856.021 17.3683C856.021 14.3171 853.086 11.7354 849.617 11.7354C846.148 11.7354 843.213 14.3171 843.213 17.3683C843.213 18.5418 844.814 19.2459 846.681 19.4806V24.8789H852.018V19.4806C854.42 19.0112 856.021 18.3071 856.021 17.3683Z" fill="#FFD15C"/>
<path d="M727.404 63.7806C730.073 61.9029 730.606 58.3823 728.205 56.0353C726.07 53.6882 722.068 53.2188 719.399 55.3312C718.332 56.0353 718.866 57.4435 719.933 59.0864L715.13 62.3723L718.599 66.1276L723.402 62.607C724.736 63.7806 726.337 64.4847 727.404 63.7806Z" fill="#FFD15C"/>
<path fill-rule="evenodd" clip-rule="evenodd" d="M841.063 56.7988C841.063 53.9823 843.731 51.6353 846.934 51.6353C850.402 51.6353 853.071 53.9823 852.804 56.7988C852.804 59.6153 850.136 61.9623 846.934 61.9623C843.731 61.9623 841.063 59.6153 841.063 56.7988ZM843.198 56.799C843.198 58.6766 844.799 60.0849 846.934 60.0849C849.068 60.0849 850.669 58.6766 850.669 56.799C850.669 54.9213 849.068 53.5131 846.934 53.5131C844.799 53.5131 843.198 54.9213 843.198 56.799Z" fill="#FF7058"/>
<path fill-rule="evenodd" clip-rule="evenodd" d="M736.477 12.2048C736.477 9.38832 739.145 7.04126 742.347 7.04126C745.816 7.04126 748.484 9.38832 748.218 12.2048C748.218 15.0213 745.549 17.3683 742.347 17.3683C739.145 17.3683 736.477 15.0213 736.477 12.2048ZM738.611 12.2049C738.611 14.0826 740.212 15.4908 742.347 15.4908C744.482 15.4908 746.083 14.0826 746.083 12.2049C746.083 10.3273 744.482 8.91904 742.347 8.91904C740.212 8.91904 738.611 10.3273 738.611 12.2049Z" fill="#FF7058"/>
<path fill-rule="evenodd" clip-rule="evenodd" d="M821.865 83.8217C821.865 81.0053 824.534 78.6582 827.736 78.6582C830.938 78.6582 833.606 81.0053 833.606 83.8217C833.606 86.6382 830.938 88.9853 827.736 88.9853C824.534 88.9853 821.865 86.6382 821.865 83.8217ZM824 83.5871C824 85.4648 825.601 86.873 827.736 86.873C829.87 86.873 831.471 85.4648 831.471 83.5871C831.471 81.7095 829.87 80.3012 827.736 80.3012C825.601 80.3012 824 81.7095 824 83.5871Z" fill="#FF7058"/>
<path d="M286.852 478.8C286.852 478.8 -166.775 415.429 446.956 380.223C1060.69 345.018 869.896 522.221 801.852 258.176C733.808 -5.8678 951.282 418.95 880.57 222.97C809.858 26.991 1310.18 166.641 959.288 18.7763C608.394 -129.088 873.899 262.87 513.666 144.344C153.433 25.8175 202.798 -187.765 202.798 -187.765" stroke="#868686" stroke-width="0.842281" stroke-linecap="round" stroke-dasharray="4.21"/>
<path d="M722.601 253.436H711.928C710.86 253.436 709.793 252.498 709.793 251.559C709.793 250.62 710.593 249.681 711.928 249.681H722.601C723.669 249.681 724.736 250.62 724.736 251.559C724.469 252.732 723.669 253.436 722.601 253.436Z" fill="#CD807D"/>
<path d="M743.148 225.507C742.347 225.507 741.813 225.037 741.28 224.568L736.477 216.118C735.943 215.179 736.477 214.241 737.277 213.771C738.345 213.302 739.412 213.771 739.946 214.475L744.749 222.925C745.549 223.629 745.282 225.507 743.148 225.507Z" fill="#CD807D"/>
<path d="M727.937 286.53L722.601 278.315C722.067 277.377 722.334 276.438 723.401 275.968C724.469 275.499 725.536 275.734 726.07 276.672L731.406 284.887C731.94 285.826 731.673 286.765 730.606 287.234C729.805 287.704 728.471 287 727.937 286.53Z" fill="#84DBFF"/>
<path d="M713.529 277.377C715.444 277.377 716.997 276.01 716.997 274.325C716.997 272.64 715.444 271.274 713.529 271.274C711.613 271.274 710.06 272.64 710.06 274.325C710.06 276.01 711.613 277.377 713.529 277.377Z" fill="#FFD15C"/>
<path d="M718.865 233.017C720.781 233.017 722.334 231.651 722.334 229.966C722.334 228.281 720.781 226.915 718.865 226.915C716.949 226.915 715.396 228.281 715.396 229.966C715.396 231.651 716.949 233.017 718.865 233.017Z" fill="#84DBFF"/>
<path d="M835.588 91.9392C836.999 92.9608 849.703 95.0039 859.583 87.853" stroke="black" stroke-width="0.842281" stroke-linecap="round"/>
</g>
</svg>
