<svg width="414" height="247" viewBox="0 0 414 247" fill="none" xmlns="http://www.w3.org/2000/svg">
<mask id="mask0" mask-type="alpha" maskUnits="userSpaceOnUse" x="0" y="-1" width="416" height="248">
<rect y="-0.000488281" width="416" height="247" rx="12.9326" fill="white"/>
</mask>
<g mask="url(#mask0)">
<path d="M345.733 10.7515C345.733 8.86264 344.547 7.2644 343.146 7.2644C341.745 7.2644 340.56 8.86264 340.56 10.7515C340.56 11.4779 341.206 11.9138 341.961 12.0591V15.4009H344.116V12.0591C345.086 11.7685 345.733 11.3326 345.733 10.7515Z" fill="#FFD15C"/>
<path d="M293.787 39.4827C294.864 38.3203 295.08 36.1409 294.11 34.688C293.248 33.235 291.631 32.9444 290.553 34.2521C290.122 34.688 290.338 35.5597 290.769 36.5768L288.829 38.6109L290.23 40.9356L292.17 38.7562C292.709 39.4827 293.356 39.9185 293.787 39.4827Z" fill="#FFD15C"/>
<path fill-rule="evenodd" clip-rule="evenodd" d="M339.691 35.1606C339.691 33.4171 340.769 31.9641 342.062 31.9641C343.463 31.9641 344.541 33.4171 344.433 35.1606C344.433 36.9041 343.356 38.3571 342.062 38.3571C340.769 38.3571 339.691 36.9041 339.691 35.1606ZM340.554 35.1609C340.554 36.3233 341.2 37.195 342.063 37.195C342.925 37.195 343.571 36.3233 343.571 35.1609C343.571 33.9986 342.925 33.1268 342.063 33.1268C341.2 33.1268 340.554 33.9986 340.554 35.1609Z" fill="#FF7058"/>
<path fill-rule="evenodd" clip-rule="evenodd" d="M297.451 7.55462C297.451 5.81109 298.529 4.35815 299.822 4.35815C301.223 4.35815 302.301 5.81109 302.193 7.55462C302.193 9.29815 301.115 10.7511 299.822 10.7511C298.529 10.7511 297.451 9.29815 297.451 7.55462ZM298.313 7.55462C298.313 8.71698 298.96 9.58874 299.822 9.58874C300.684 9.58874 301.331 8.71698 301.331 7.55462C301.331 6.39227 300.684 5.5205 299.822 5.5205C298.96 5.5205 298.313 6.39227 298.313 7.55462Z" fill="#FF7058"/>
<path fill-rule="evenodd" clip-rule="evenodd" d="M331.938 51.8891C331.938 50.1456 333.016 48.6926 334.309 48.6926C335.602 48.6926 336.68 50.1456 336.68 51.8891C336.68 53.6326 335.602 55.0856 334.309 55.0856C333.016 55.0856 331.938 53.6326 331.938 51.8891ZM332.8 51.7438C332.8 52.9061 333.447 53.7779 334.309 53.7779C335.171 53.7779 335.818 52.9061 335.818 51.7438C335.818 50.5814 335.171 49.7097 334.309 49.7097C333.447 49.7097 332.8 50.5814 332.8 51.7438Z" fill="#FF7058"/>
<path d="M115.855 296.4C115.855 296.4 -67.3575 257.17 180.518 235.376C428.394 213.582 351.337 323.279 323.855 159.823C296.373 -3.63286 384.207 259.35 355.648 138.029C327.088 16.7083 529.161 103.158 387.44 11.623C245.72 -79.9123 352.953 162.729 207.461 89.3554C61.9689 15.9819 81.9067 -116.236 81.9067 -116.236" stroke="#868686" stroke-width="1.07772" stroke-linecap="round" stroke-dasharray="5.39"/>
<path d="M291.847 156.889V156.889H287.536C287.105 156.889 286.674 156.308 286.674 155.727C286.674 155.145 286.997 154.564 287.536 154.564V154.564H291.847C292.278 154.564 292.709 155.145 292.709 155.727C292.601 156.453 292.278 156.889 291.847 156.889Z" fill="#CD807D"/>
<path d="M300.145 139.599C299.822 139.599 299.606 139.308 299.391 139.018L297.451 133.787C297.235 133.206 297.451 132.625 297.774 132.334C298.205 132.044 298.636 132.334 298.852 132.77L300.792 138.001C301.115 138.437 301.007 139.599 300.145 139.599Z" fill="#CD807D"/>
<path d="M294.002 177.375L291.847 172.29C291.631 171.709 291.739 171.128 292.17 170.837C292.601 170.547 293.032 170.692 293.248 171.273L295.403 176.358C295.619 176.94 295.511 177.521 295.08 177.811C294.756 178.102 294.218 177.666 294.002 177.375Z" fill="#84DBFF"/>
<path d="M288.182 171.709C288.956 171.709 289.583 170.863 289.583 169.82C289.583 168.777 288.956 167.931 288.182 167.931C287.409 167.931 286.781 168.777 286.781 169.82C286.781 170.863 287.409 171.709 288.182 171.709Z" fill="#FFD15C"/>
<path d="M290.338 144.248C291.112 144.248 291.739 143.402 291.739 142.359C291.739 141.316 291.112 140.47 290.338 140.47C289.564 140.47 288.937 141.316 288.937 142.359C288.937 143.402 289.564 144.248 290.338 144.248Z" fill="#84DBFF"/>
<path d="M319.005 65.382C319.544 66.1084 324.394 67.5614 328.166 62.4761" stroke="black" stroke-width="1.07772" stroke-linecap="round"/>
</g>
</svg>
