<svg width="1919" height="459" viewBox="0 0 1919 459" fill="none" xmlns="http://www.w3.org/2000/svg">
<mask id="mask0" mask-type="alpha" maskUnits="userSpaceOnUse" x="0" y="0" width="1919" height="459">
<rect width="1919" height="459" rx="13.3571" fill="white"/>
</mask>
<g mask="url(#mask0)">
<path d="M1594.86 19.98C1594.86 16.47 1589.39 13.5 1582.93 13.5C1576.46 13.5 1571 16.47 1571 19.98C1571 21.33 1573.98 22.14 1577.46 22.41V28.62H1587.4V22.41C1591.88 21.87 1594.86 21.06 1594.86 19.98Z" fill="#FFD15C"/>
<path d="M1355.23 73.3717C1360.2 71.2117 1361.2 67.1617 1356.72 64.4617C1352.75 61.7617 1345.29 61.2217 1340.32 63.6517C1338.33 64.4617 1339.32 66.0817 1341.31 67.9717L1332.36 71.7517L1338.83 76.0717L1347.77 72.0217C1350.26 73.3717 1353.24 74.1817 1355.23 73.3717Z" fill="#FFD15C"/>
<path fill-rule="evenodd" clip-rule="evenodd" d="M1566.99 65.3399C1566.99 62.0999 1571.96 59.3999 1577.93 59.3999C1584.39 59.3999 1589.36 62.0999 1588.86 65.3399C1588.86 68.5799 1583.89 71.2799 1577.93 71.2799C1571.96 71.2799 1566.99 68.5799 1566.99 65.3399ZM1570.97 65.3401C1570.97 67.5001 1573.95 69.1201 1577.93 69.1201C1581.91 69.1201 1584.89 67.5001 1584.89 65.3401C1584.89 63.1801 1581.91 61.5601 1577.93 61.5601C1573.95 61.5601 1570.97 63.1801 1570.97 65.3401Z" fill="#FF7058"/>
<path fill-rule="evenodd" clip-rule="evenodd" d="M1372.13 14.0401C1372.13 10.8001 1377.11 8.1001 1383.07 8.1001C1389.53 8.1001 1394.51 10.8001 1394.01 14.0401C1394.01 17.2801 1389.04 19.9801 1383.07 19.9801C1377.11 19.9801 1372.13 17.2801 1372.13 14.0401ZM1376.11 14.0403C1376.11 16.2003 1379.09 17.8203 1383.07 17.8203C1387.05 17.8203 1390.03 16.2003 1390.03 14.0403C1390.03 11.8803 1387.05 10.2603 1383.07 10.2603C1379.09 10.2603 1376.11 11.8803 1376.11 14.0403Z" fill="#FF7058"/>
<path fill-rule="evenodd" clip-rule="evenodd" d="M1531.22 96.4263C1531.22 93.1863 1536.19 90.4863 1542.16 90.4863C1548.13 90.4863 1553.1 93.1863 1553.1 96.4263C1553.1 99.6663 1548.13 102.366 1542.16 102.366C1536.19 102.366 1531.22 99.6663 1531.22 96.4263ZM1535.2 96.1564C1535.2 98.3164 1538.18 99.9364 1542.16 99.9364C1546.14 99.9364 1549.12 98.3164 1549.12 96.1564C1549.12 93.9964 1546.14 92.3764 1542.16 92.3764C1538.18 92.3764 1535.2 93.9964 1535.2 96.1564Z" fill="#FF7058"/>
<path d="M534.436 550.8C534.436 550.8 -310.719 477.9 832.727 437.4C1976.17 396.9 1620.71 600.75 1493.94 297C1367.16 -6.7502 1772.34 481.95 1640.6 256.5C1508.85 31.0498 2441.01 191.7 1787.25 21.5998C1133.5 -148.5 1628.17 302.4 957.014 166.05C285.861 29.6998 377.834 -216 377.834 -216" stroke="#868686" stroke-width="1.11309" stroke-linecap="round" stroke-dasharray="5.57"/>
<path d="M1346.28 291.547H1326.4C1324.41 291.547 1322.42 290.467 1322.42 289.387C1322.42 288.307 1323.91 287.227 1326.4 287.227H1346.28C1348.27 287.227 1350.26 288.307 1350.26 289.387C1349.76 290.737 1348.27 291.547 1346.28 291.547Z" fill="#CD807D"/>
<path d="M1384.56 259.417C1383.07 259.417 1382.08 258.877 1381.08 258.337L1372.13 248.617C1371.14 247.537 1372.13 246.457 1373.63 245.917C1375.61 245.377 1377.6 245.917 1378.6 246.727L1387.55 256.447C1389.04 257.257 1388.54 259.417 1384.56 259.417Z" fill="#CD807D"/>
<path d="M1356.23 329.617L1346.28 320.167C1345.29 319.087 1345.79 318.007 1347.77 317.467C1349.76 316.927 1351.75 317.197 1352.75 318.277L1362.69 327.727C1363.68 328.807 1363.19 329.887 1361.2 330.427C1359.71 330.967 1357.22 330.157 1356.23 329.617Z" fill="#84DBFF"/>
<path d="M1329.38 319.087C1332.95 319.087 1335.84 317.516 1335.84 315.577C1335.84 313.639 1332.95 312.067 1329.38 312.067C1325.81 312.067 1322.92 313.639 1322.92 315.577C1322.92 317.516 1325.81 319.087 1329.38 319.087Z" fill="#FFD15C"/>
<path d="M1339.32 268.057C1342.89 268.057 1345.79 266.486 1345.79 264.547C1345.79 262.609 1342.89 261.037 1339.32 261.037C1335.75 261.037 1332.86 262.609 1332.86 264.547C1332.86 266.486 1335.75 268.057 1339.32 268.057Z" fill="#84DBFF"/>
<path d="M1104.25 121.5C1106.11 122.85 1122.9 125.55 1135.96 116.1" stroke="black" stroke-width="1.11309" stroke-linecap="round"/>
</g>
</svg>
