<svg width="226" height="416" viewBox="0 0 226 416" fill="none" xmlns="http://www.w3.org/2000/svg">
<path d="M72.9802 47.7537C74.4942 76.2076 78.3469 104.662 84.4997 133.116L108.043 129.239L108.247 124.703L112.013 128.909L122.892 126.801L151.695 119.068C158.265 117.019 168.184 113.929 179.014 110.558L176.035 102.184L184.099 99.27C181.333 76.6837 168.95 45.5971 156.674 20.9318L76.6001 42.6341L72.9802 47.7537Z" fill="#171724"/>
<path d="M155.529 131.144L123.455 138.857L117.36 104.73L145.484 97.9685L155.529 131.144Z" fill="#EC5E48"/>
<path d="M117.36 104.73L119.214 115.115C129.452 113.803 138.594 110.024 147.532 104.73L145.484 97.9685L117.36 104.73Z" fill="#171724"/>
<path d="M161.963 58.119L154.763 28.101L76.7656 46.8501L83.9665 76.8681C89.1392 98.4247 110.79 111.705 132.325 106.536C153.87 101.349 167.136 79.6756 161.963 58.119Z" fill="#EC5E48"/>
<path d="M83.2957 93.1383C88.7418 90.3773 90.2298 82.354 86.6193 75.2176C83.0088 68.0813 75.6669 64.5343 70.2209 67.2952C64.7748 70.0561 63.2868 78.0795 66.8973 85.2159C70.5078 92.3522 77.8496 95.8992 83.2957 93.1383Z" fill="#EC5E48"/>
<path d="M172.163 71.178C178.268 71.1622 183.2 64.6645 183.18 56.665C183.159 48.6654 178.193 42.1934 172.088 42.2092C165.984 42.225 161.051 48.7227 161.072 56.7222C161.093 64.7217 166.059 71.1938 172.163 71.178Z" fill="#EC5E48"/>
<path d="M73.5437 50.4837L91.3131 124.538L102.677 121.808L85.2088 59.6737C95.0397 53.6312 105.676 56.4387 115.187 51.5426L119.088 39.924L122.892 49.114C135.693 47.3265 142.078 45.6847 153.423 40.4874L168.592 105.973L179.335 103.389L158.353 25.9544C152.56 5.46644 136.45 -3.87897 109.354 1.49318C82.375 7.96308 67.9344 27.1008 73.5437 50.4837Z" fill="#171724"/>
<path d="M109.356 80.5767C110.967 80.1896 111.553 76.8772 110.665 73.1783C109.778 69.4793 107.753 66.7946 106.143 67.1817C104.532 67.5688 103.946 70.8812 104.833 74.5801C105.721 78.2791 107.746 80.9638 109.356 80.5767Z" fill="#171724"/>
<path d="M144.061 71.9682C145.672 71.5811 146.258 68.2687 145.371 64.5698C144.483 60.8708 142.459 58.1861 140.848 58.5732C139.238 58.9603 138.651 62.2727 139.539 65.9716C140.426 69.6706 142.451 72.3553 144.061 71.9682Z" fill="#171724"/>
<path d="M131.295 128.696C94.2524 135.876 73.164 156.373 78.3852 197.961L104.84 383.14H234.398L221.511 180.99C212.689 130.737 171.987 121.226 131.295 128.696Z" fill="white"/>
<path d="M234.398 384.102H104.84C104.355 384.102 103.947 383.743 103.879 383.267L77.4242 198.088C74.8816 177.833 78.5209 161.59 88.245 149.806C97.2025 138.945 111.624 131.524 131.111 127.745H131.12C150.083 124.267 176.917 123.072 197.113 137.129C210.486 146.435 219.016 161.134 222.461 180.815C222.471 180.854 222.471 180.883 222.471 180.922L235.359 383.072C235.378 383.344 235.281 383.607 235.097 383.801C234.922 383.995 234.67 384.102 234.398 384.102ZM105.675 382.159H233.36L220.54 181.097C217.172 161.979 208.914 147.718 195.997 138.722C176.354 125.044 150.064 126.239 131.47 129.649C91.6028 137.381 74.5516 159.676 79.3457 197.835L105.675 382.159Z" fill="black"/>
<path d="M165.622 340.775H182.537L197.172 312.399C203.16 304.919 212.709 296.467 221.783 297.555L246.559 306.91C250.179 309.514 248.209 315.955 243.813 315.148L220.949 309.203L216.378 316.528L227.354 318.587L243.299 337.016C251.645 348.314 230.158 371.104 222.084 364.119C215.805 358.038 212.535 353.822 208.992 357.445C198.841 367.267 193.077 376.525 182.236 375.874H160.148L165.622 340.775Z" fill="#EC5E48"/>
<path d="M47.661 184.021C32.9583 209.483 4.45551 316.926 1.03945 364.848C0.369819 374.194 4.57197 383.073 13.7818 384.792L171.125 414.208L183.12 326.145L91.8466 316.198L110.693 203.713C113.226 187.616 119.825 158.045 101.454 149.914C81.1908 143.521 62.9459 156.5 47.661 184.021Z" fill="white"/>
<path d="M171.115 415.189C171.056 415.189 170.998 415.179 170.94 415.169L13.597 385.754C3.34882 383.84 -0.581603 373.844 0.0686144 364.79C3.59143 315.401 32.5018 208.346 46.8163 183.545C62.8679 154.654 81.8504 142.715 101.735 148.99C101.774 149 101.803 149.01 101.832 149.029C119.456 156.83 115.147 182.729 112.294 199.866C112.061 201.274 111.838 202.605 111.644 203.868L92.972 315.352L183.226 325.183C183.488 325.212 183.721 325.348 183.886 325.552C184.051 325.756 184.119 326.019 184.08 326.281L172.085 414.344C172.046 414.606 171.91 414.849 171.687 415.004C171.512 415.121 171.318 415.189 171.115 415.189ZM91.2543 149.262C75.8626 149.262 61.5287 161.066 48.5049 184.497L48.4953 184.507C34.2584 209.153 5.51299 315.721 1.99988 364.916C1.18468 376.292 7.41509 382.616 13.9561 383.83L170.299 413.061L182.023 326.99L91.7395 317.159C91.4775 317.13 91.2349 316.994 91.0699 316.78C90.9049 316.566 90.837 316.294 90.8855 316.032L109.732 203.547C109.926 202.294 110.149 200.954 110.392 199.545C113.138 183.011 117.302 158.044 101.114 150.826C97.7758 149.787 94.486 149.262 91.2543 149.262Z" fill="black"/>
<path d="M137.07 128.191L124.9 165.534L100.784 140.053C107.704 134.642 120.95 129.59 137.07 128.191Z" fill="white"/>
<path d="M124.91 166.506C124.648 166.506 124.386 166.399 124.202 166.204L100.095 140.723C99.9109 140.529 99.8138 140.257 99.8333 139.985C99.8527 139.713 99.9885 139.46 100.202 139.295C108.063 133.146 122.154 128.522 136.993 127.23C137.313 127.21 137.633 127.336 137.837 127.589C138.041 127.842 138.099 128.182 138.002 128.492L125.832 165.835C125.725 166.156 125.454 166.408 125.124 166.486C125.046 166.496 124.978 166.506 124.91 166.506ZM102.25 140.179L124.493 163.679L135.692 129.299C119.922 130.892 108.296 135.808 102.25 140.179Z" fill="black"/>
<path d="M138.263 127.588L169.435 153.808L183.109 131.018C167.096 126.393 154.548 124.995 138.263 127.588Z" fill="white"/>
<path d="M169.435 154.78C169.212 154.78 168.988 154.702 168.814 154.556L137.642 128.337C137.351 128.094 137.235 127.696 137.332 127.336C137.429 126.967 137.739 126.695 138.118 126.637C153.577 124.179 166.261 125.15 183.39 130.085C183.681 130.173 183.914 130.386 184.021 130.668C184.128 130.95 184.108 131.261 183.953 131.523L170.279 154.313C170.134 154.556 169.891 154.721 169.61 154.77C169.542 154.77 169.483 154.78 169.435 154.78ZM140.534 128.23L169.183 152.332L181.624 131.601C166.194 127.268 154.383 126.287 140.534 128.23Z" fill="black"/>
</svg>
