<svg width="52" height="51" viewBox="0 0 52 51" fill="none" xmlns="http://www.w3.org/2000/svg">
<rect x="0.560425" y="0.0756836" width="50.5055" height="50.5055" rx="14.0293" fill="#FAC814"/>
<path d="M27.2161 15.5079C27.2161 14.7331 26.588 14.105 25.8132 14.105C25.0383 14.105 24.4102 14.7331 24.4102 15.5079V23.9255H15.9927C15.2178 23.9255 14.5897 24.5536 14.5897 25.3284C14.5897 26.1032 15.2178 26.7314 15.9927 26.7314H24.4102V35.1489C24.4102 35.9238 25.0383 36.5519 25.8132 36.5519C26.588 36.5519 27.2161 35.9238 27.2161 35.1489V26.7314H35.6337C36.4085 26.7314 37.0366 26.1032 37.0366 25.3284C37.0366 24.5536 36.4085 23.9255 35.6337 23.9255L27.2161 23.9255V15.5079Z" fill="white"/>
</svg>
